<?xml version="1.0" standalone="no"?><!DOCTYPE svg PUBLIC "-//W3C//DTD SVG 1.1//EN" "http://www.w3.org/Graphics/SVG/1.1/DTD/svg11.dtd"><svg t="1582534674779" class="icon" viewBox="0 0 1024 1024" version="1.1" xmlns="http://www.w3.org/2000/svg" p-id="12871" xmlns:xlink="http://www.w3.org/1999/xlink" width="128" height="128"><defs><style type="text/css"></style></defs><path d="M61.44 972.8V51.2c0-28.27776 22.92224-51.2 51.2-51.2s51.2 22.92224 51.2 51.2v921.6c0 28.27776-22.92224 51.2-51.2 51.2s-51.2-22.92224-51.2-51.2z m399.36 0V51.2c0-28.27776 22.92224-51.2 51.2-51.2s51.2 22.92224 51.2 51.2v921.6c0 28.27776-22.92224 51.2-51.2 51.2s-51.2-22.92224-51.2-51.2z m399.36 0V51.2c0-28.27776 22.92224-51.2 51.2-51.2s51.2 22.92224 51.2 51.2v921.6c0 28.27776-22.92224 51.2-51.2 51.2s-51.2-22.92224-51.2-51.2z" fill="#00bfff" p-id="12872"></path></svg>