<svg viewBox="0 0 1097 1024" version="1.1" xmlns="http://www.w3.org/2000/svg" width="200" height="200" fill="#ffc107">
    <path d="M1035.922286 360.594286L715.044571 313.782857 571.538286 22.528a40.594286 40.594286 0 0 0-72.557715 0L355.547429 313.856 34.596571 360.594286a40.594286 40.594286 0 0 0-22.381714 69.12l232.228572 226.742857-54.857143 320.146286a40.374857 40.374857 0 0 0 58.660571 42.642285l287.012572-151.113143 287.085714 151.186286a40.448 40.448 0 0 0 58.660571-42.642286l-54.857143-320.219428 232.155429-226.742857a40.448 40.448 0 0 0-22.381714-69.12zM728.502857 624.566857l45.641143 266.24-238.811429-125.586286V154.989714l119.369143 242.102857 266.971429 38.912L728.356571 624.64z"></path>
</svg>